<svg width="1280" height="720" version="1.1" viewBox="0 0 338.67 190.5" xmlns="http://www.w3.org/2000/svg" xmlns:xlink="http://www.w3.org/1999/xlink">
  <defs>
    <linearGradient id="linearGradient958" x1="158.75" x2="158.75" y1="3.2926" y2="23.283" gradientUnits="userSpaceOnUse">
      <stop stop-color="#2d3a69" offset="0"/>
      <stop stop-color="#4c5c96" offset=".5"/>
      <stop stop-color="#2d3a69" offset="1"/>
    </linearGradient>
  </defs>
  <g>
    <rect y="3.125e-6" width="338.67" height="190.5" fill="#fff"/>
    <g>
      <path d="m0 0v29.104h268.43v-18.303h52.917v18.303h17.317v-29.104z" fill="url(#linearGradient958)"/>
      <rect x="271.11" y="13.112" width="47.625" height="47.625" fill="#402248"/>
      <text x="15.310004" y="16.193672" fill="#ffffff" font-family="'Sitka Heading'" font-size="10.583px" font-style="italic" letter-spacing="0px" stroke-width=".26458" word-spacing="0px" style="line-height:1.25" xml:space="preserve"><tspan x="15.310004" y="16.193672" fill="#ffffff" font-family="'Segoe UI'" font-size="7.0556px" font-style="normal" font-weight="bold" stroke-width=".26458">Подкаст на тему .NET во всех его проявлениях</tspan></text>
    </g>
    <g fill="#efeff3">
      <rect x="4.2333" y="148.61" width="8.1139" height="4.1745"/>
      <rect x="4.1745" y="143.42" width="8.1139" height="4.1745"/>
      <rect x="4.2921" y="158.98" width="8.1139" height="4.1745"/>
      <rect x="4.2333" y="153.79" width="8.1139" height="4.1745"/>
      <rect x="4.4097" y="164.16" width="8.1139" height="4.1745"/>
      <rect x="13.38" y="138.24" width="8.1139" height="4.1745"/>
      <rect x="13.322" y="133.06" width="8.1139" height="4.1745"/>
      <rect x="13.439" y="148.61" width="8.1139" height="4.1745"/>
      <rect x="13.38" y="143.42" width="8.1139" height="4.1745"/>
      <rect x="13.498" y="158.98" width="8.1139" height="4.1745"/>
      <rect x="13.439" y="153.79" width="8.1139" height="4.1745"/>
      <rect x="13.616" y="164.16" width="8.1139" height="4.1745"/>
      <rect x="22.704" y="158.98" width="8.1139" height="4.1745"/>
      <rect x="22.645" y="153.79" width="8.1139" height="4.1745"/>
      <rect x="22.821" y="164.16" width="8.1139" height="4.1745"/>
      <rect x="31.91" y="158.98" width="8.1139" height="4.1745"/>
      <rect x="32.027" y="164.16" width="8.1139" height="4.1745"/>
      <rect x="41.057" y="148.61" width="8.1139" height="4.1745"/>
      <rect x="41.115" y="158.98" width="8.1139" height="4.1745"/>
      <rect x="41.057" y="153.79" width="8.1139" height="4.1745"/>
      <rect x="41.233" y="164.16" width="8.1139" height="4.1745"/>
      <rect x="50.321" y="158.98" width="8.1139" height="4.1745"/>
      <rect x="50.262" y="153.79" width="8.1139" height="4.1745"/>
      <rect x="50.439" y="164.16" width="8.1139" height="4.1745"/>
      <rect x="59.468" y="148.61" width="8.1139" height="4.1745"/>
      <rect x="59.527" y="158.98" width="8.1139" height="4.1745"/>
      <rect x="59.468" y="153.79" width="8.1139" height="4.1745"/>
      <rect x="59.645" y="164.16" width="8.1139" height="4.1745"/>
      <rect x="68.615" y="138.24" width="8.1139" height="4.1745"/>
      <rect x="68.674" y="148.61" width="8.1139" height="4.1745"/>
      <rect x="68.615" y="143.42" width="8.1139" height="4.1745"/>
      <rect x="68.733" y="158.98" width="8.1139" height="4.1745"/>
      <rect x="68.674" y="153.79" width="8.1139" height="4.1745"/>
      <rect x="68.85" y="164.16" width="8.1139" height="4.1745"/>
      <rect x="77.821" y="138.24" width="8.1139" height="4.1745"/>
      <rect x="77.762" y="133.06" width="8.1139" height="4.1745"/>
      <rect x="77.88" y="148.61" width="8.1139" height="4.1745"/>
      <rect x="77.821" y="143.42" width="8.1139" height="4.1745"/>
      <rect x="77.939" y="158.98" width="8.1139" height="4.1745"/>
      <rect x="77.88" y="153.79" width="8.1139" height="4.1745"/>
      <rect x="78.056" y="164.16" width="8.1139" height="4.1745"/>
      <rect x="87.086" y="148.61" width="8.1139" height="4.1745"/>
      <rect x="87.027" y="143.42" width="8.1139" height="4.1745"/>
      <rect x="87.145" y="158.98" width="8.1139" height="4.1745"/>
      <rect x="87.086" y="153.79" width="8.1139" height="4.1745"/>
      <rect x="87.262" y="164.16" width="8.1139" height="4.1745"/>
      <rect x="96.292" y="148.61" width="8.1139" height="4.1745"/>
      <rect x="96.35" y="158.98" width="8.1139" height="4.1745"/>
      <rect x="96.292" y="153.79" width="8.1139" height="4.1745"/>
      <rect x="96.468" y="164.16" width="8.1139" height="4.1745"/>
      <rect x="105.44" y="138.24" width="8.1139" height="4.1745"/>
      <rect x="105.5" y="148.61" width="8.1139" height="4.1745"/>
      <rect x="105.44" y="143.42" width="8.1139" height="4.1745"/>
      <rect x="105.56" y="158.98" width="8.1139" height="4.1745"/>
      <rect x="105.5" y="153.79" width="8.1139" height="4.1745"/>
      <rect x="105.67" y="164.16" width="8.1139" height="4.1745"/>
      <rect x="114.7" y="148.61" width="8.1139" height="4.1745"/>
      <rect x="114.64" y="143.42" width="8.1139" height="4.1745"/>
      <rect x="114.76" y="158.98" width="8.1139" height="4.1745"/>
      <rect x="114.7" y="153.79" width="8.1139" height="4.1745"/>
      <rect x="114.88" y="164.16" width="8.1139" height="4.1745"/>
      <rect x="123.85" y="138.24" width="8.1139" height="4.1745"/>
      <rect x="123.79" y="133.06" width="8.1139" height="4.1745"/>
      <rect x="123.91" y="148.61" width="8.1139" height="4.1745"/>
      <rect x="123.85" y="143.42" width="8.1139" height="4.1745"/>
      <rect x="123.97" y="158.98" width="8.1139" height="4.1745"/>
      <rect x="123.91" y="153.79" width="8.1139" height="4.1745"/>
      <rect x="124.09" y="164.16" width="8.1139" height="4.1745"/>
      <rect x="133.11" y="148.61" width="8.1139" height="4.1745"/>
      <rect x="133.17" y="158.98" width="8.1139" height="4.1745"/>
      <rect x="133.11" y="153.79" width="8.1139" height="4.1745"/>
      <rect x="133.29" y="164.16" width="8.1139" height="4.1745"/>
      <rect x="142.32" y="148.61" width="8.1139" height="4.1745"/>
      <rect x="142.26" y="143.42" width="8.1139" height="4.1745"/>
      <rect x="142.38" y="158.98" width="8.1139" height="4.1745"/>
      <rect x="142.32" y="153.79" width="8.1139" height="4.1745"/>
      <rect x="142.5" y="164.16" width="8.1139" height="4.1745"/>
      <rect x="151.59" y="158.98" width="8.1139" height="4.1745"/>
      <rect x="151.7" y="164.16" width="8.1139" height="4.1745"/>
      <rect x="160.79" y="158.98" width="8.1139" height="4.1745"/>
      <rect x="160.73" y="153.79" width="8.1139" height="4.1745"/>
      <rect x="160.91" y="164.16" width="8.1139" height="4.1745"/>
      <rect x="169.94" y="148.61" width="8.1139" height="4.1745"/>
      <rect x="169.88" y="143.42" width="8.1139" height="4.1745"/>
      <rect x="170" y="158.98" width="8.1139" height="4.1745"/>
      <rect x="169.94" y="153.79" width="8.1139" height="4.1745"/>
      <rect x="170.11" y="164.16" width="8.1139" height="4.1745"/>
      <rect x="179.14" y="148.61" width="8.1139" height="4.1745"/>
      <rect x="179.09" y="143.42" width="8.1139" height="4.1745"/>
      <rect x="179.2" y="158.98" width="8.1139" height="4.1745"/>
      <rect x="179.14" y="153.79" width="8.1139" height="4.1745"/>
      <rect x="179.32" y="164.16" width="8.1139" height="4.1745"/>
      <rect x="188.29" y="138.24" width="8.1139" height="4.1745"/>
      <rect x="188.23" y="133.06" width="8.1139" height="4.1745"/>
      <rect x="188.35" y="148.61" width="8.1139" height="4.1745"/>
      <rect x="188.29" y="143.42" width="8.1139" height="4.1745"/>
      <rect x="188.41" y="158.98" width="8.1139" height="4.1745"/>
      <rect x="188.35" y="153.79" width="8.1139" height="4.1745"/>
      <rect x="188.53" y="164.16" width="8.1139" height="4.1745"/>
      <rect x="197.5" y="138.24" width="8.1139" height="4.1745"/>
      <rect x="197.56" y="148.61" width="8.1139" height="4.1745"/>
      <rect x="197.5" y="143.42" width="8.1139" height="4.1745"/>
      <rect x="197.61" y="158.98" width="8.1139" height="4.1745"/>
      <rect x="197.56" y="153.79" width="8.1139" height="4.1745"/>
      <rect x="197.73" y="164.16" width="8.1139" height="4.1745"/>
      <rect x="206.82" y="158.98" width="8.1139" height="4.1745"/>
      <rect x="206.76" y="153.79" width="8.1139" height="4.1745"/>
      <rect x="206.94" y="164.16" width="8.1139" height="4.1745"/>
      <rect x="215.97" y="148.61" width="8.1139" height="4.1745"/>
      <rect x="215.91" y="143.42" width="8.1139" height="4.1745"/>
      <rect x="216.03" y="158.98" width="8.1139" height="4.1745"/>
      <rect x="215.97" y="153.79" width="8.1139" height="4.1745"/>
      <rect x="216.14" y="164.16" width="8.1139" height="4.1745"/>
      <rect x="225.17" y="148.61" width="8.1139" height="4.1745"/>
      <rect x="225.23" y="158.98" width="8.1139" height="4.1745"/>
      <rect x="225.17" y="153.79" width="8.1139" height="4.1745"/>
      <rect x="225.35" y="164.16" width="8.1139" height="4.1745"/>
      <rect x="234.32" y="138.24" width="8.1139" height="4.1745"/>
      <rect x="234.38" y="148.61" width="8.1139" height="4.1745"/>
      <rect x="234.32" y="143.42" width="8.1139" height="4.1745"/>
      <rect x="234.44" y="158.98" width="8.1139" height="4.1745"/>
      <rect x="234.38" y="153.79" width="8.1139" height="4.1745"/>
      <rect x="234.56" y="164.16" width="8.1139" height="4.1745"/>
      <rect x="243.64" y="158.98" width="8.1139" height="4.1745"/>
      <rect x="243.58" y="153.79" width="8.1139" height="4.1745"/>
      <rect x="243.76" y="164.16" width="8.1139" height="4.1745"/>
      <rect x="252.79" y="148.61" width="8.1139" height="4.1745"/>
      <rect x="252.85" y="158.98" width="8.1139" height="4.1745"/>
      <rect x="252.79" y="153.79" width="8.1139" height="4.1745"/>
      <rect x="252.97" y="164.16" width="8.1139" height="4.1745"/>
      <rect x="261.94" y="138.24" width="8.1139" height="4.1745"/>
      <rect x="261.88" y="133.06" width="8.1139" height="4.1745"/>
      <rect x="262" y="148.61" width="8.1139" height="4.1745"/>
      <rect x="261.94" y="143.42" width="8.1139" height="4.1745"/>
      <rect x="262.06" y="158.98" width="8.1139" height="4.1745"/>
      <rect x="262" y="153.79" width="8.1139" height="4.1745"/>
      <rect x="262.17" y="164.16" width="8.1139" height="4.1745"/>
      <rect x="271.2" y="148.61" width="8.1139" height="4.1745"/>
      <rect x="271.14" y="143.42" width="8.1139" height="4.1745"/>
      <rect x="271.26" y="158.98" width="8.1139" height="4.1745"/>
      <rect x="271.2" y="153.79" width="8.1139" height="4.1745"/>
      <rect x="271.38" y="164.16" width="8.1139" height="4.1745"/>
      <rect x="280.35" y="138.24" width="8.1139" height="4.1745"/>
      <rect x="280.29" y="133.06" width="8.1139" height="4.1745"/>
      <rect x="280.41" y="148.61" width="8.1139" height="4.1745"/>
      <rect x="280.35" y="143.42" width="8.1139" height="4.1745"/>
      <rect x="280.47" y="158.98" width="8.1139" height="4.1745"/>
      <rect x="280.41" y="153.79" width="8.1139" height="4.1745"/>
      <rect x="280.58" y="164.16" width="8.1139" height="4.1745"/>
      <rect x="289.55" y="138.24" width="8.1139" height="4.1745"/>
      <rect x="289.61" y="148.61" width="8.1139" height="4.1745"/>
      <rect x="289.55" y="143.42" width="8.1139" height="4.1745"/>
      <rect x="289.67" y="158.98" width="8.1139" height="4.1745"/>
      <rect x="289.61" y="153.79" width="8.1139" height="4.1745"/>
      <rect x="289.79" y="164.16" width="8.1139" height="4.1745"/>
      <rect x="298.82" y="148.61" width="8.1139" height="4.1745"/>
      <rect x="298.88" y="158.98" width="8.1139" height="4.1745"/>
      <rect x="298.82" y="153.79" width="8.1139" height="4.1745"/>
      <rect x="299" y="164.16" width="8.1139" height="4.1745"/>
      <rect x="308.08" y="158.98" width="8.1139" height="4.1745"/>
      <rect x="308.03" y="153.79" width="8.1139" height="4.1745"/>
      <rect x="308.2" y="164.16" width="8.1139" height="4.1745"/>
      <rect x="317.17" y="138.24" width="8.1139" height="4.1745"/>
      <rect x="317.11" y="133.06" width="8.1139" height="4.1745"/>
      <rect x="317.23" y="148.61" width="8.1139" height="4.1745"/>
      <rect x="317.17" y="143.42" width="8.1139" height="4.1745"/>
      <rect x="317.29" y="158.98" width="8.1139" height="4.1745"/>
      <rect x="317.23" y="153.79" width="8.1139" height="4.1745"/>
      <rect x="317.41" y="164.16" width="8.1139" height="4.1745"/>
      <rect x="326.44" y="148.61" width="8.1139" height="4.1745"/>
      <rect x="326.38" y="143.42" width="8.1139" height="4.1745"/>
      <rect x="326.5" y="158.98" width="8.1139" height="4.1745"/>
      <rect x="326.44" y="153.79" width="8.1139" height="4.1745"/>
      <rect x="326.61" y="164.16" width="8.1139" height="4.1745"/>
    </g>
    <g transform="translate(0 24.93)">
      <rect y="144.4" width="338.67" height="21.167" fill="#dbdde9"/>
      <text x="68.071404" y="156.6071" fill="#7a86a4" font-family="'Sitka Heading'" font-size="10.583px" font-style="italic" letter-spacing="0px" stroke-width=".26458" word-spacing="0px" style="line-height:1.25" xml:space="preserve"><tspan x="68.071404" y="156.6071" fill="#7a86a4" font-family="'Segoe UI'" font-size="6.35px" font-style="normal" stroke-width=".26458">https://Radio.DotNet.Ru</tspan></text>
      <text x="189.77287" y="157.04584" fill="#7a86a4" font-family="'Sitka Heading'" font-size="10.583px" font-style="italic" letter-spacing="0px" stroke-width=".26458" word-spacing="0px" style="line-height:1.25" xml:space="preserve"><tspan x="189.77287" y="157.04584" fill="#7a86a4" font-family="'Segoe UI'" font-size="6.35px" font-style="normal" stroke-width=".26458">Radio@DotNet.Ru</tspan></text>
    </g>
    <g transform="matrix(.10583 0 0 .10583 15.875 42.333)">
      <rect width="800" height="800" fill="#68217a"/>
      <g fill="#fff">
        <path d="m190.74 336.08c-7.4355 0-13.465 6.027-13.465 13.465 0 7.4374 6.0298 13.465 13.465 13.465h25.934v-26.931z"/>
        <path d="m157.08 373.55c-7.4364 0-13.465 6.0288-13.465 13.464 0 7.4383 6.0288 13.466 13.465 13.466h59.598v-26.931z"/>
        <path d="m157.08 525.56c-7.4364 0-13.465 6.0288-13.465 13.466 0 7.4364 6.0288 13.466 13.465 13.466h59.598v-26.932z"/>
        <path d="m175.04 411.03c-7.4374 0-13.465 6.0288-13.465 13.465 0 7.4364 6.0279 13.466 13.465 13.466h41.643v-26.931z"/>
        <path d="m175.04 602.09c-7.4374 0-13.465 6.0288-13.465 13.466 0 7.4336 6.0279 13.464 13.465 13.464h41.643v-26.931z"/>
        <path d="m141.36 450.61c-7.4374 0-13.466 6.0298-13.466 13.466 0 7.4355 6.0288 13.466 13.466 13.466h75.307v-26.932z"/>
        <path d="m141.36 640.63c-7.4374 0-13.466 6.0288-13.466 13.465 0 7.4355 6.0288 13.465 13.466 13.465h75.307v-26.931z"/>
        <path d="m112.19 486.5c-7.4364 0-13.465 6.0288-13.465 13.465 0 7.4355 6.0288 13.465 13.465 13.465h104.48v-26.931z"/>
        <path d="m208.7 562.5c-7.4374 0-13.465 6.0288-13.465 13.466 0 7.4355 6.0288 13.465 13.465 13.465h7.9801v-26.931z"/>
      </g>
      <g fill="#cf18fd">
        <path d="m332.13 486.5h-105.43v26.931h105.43c7.4364 0 13.465-6.0298 13.465-13.465 0-7.4374-6.0288-13.465-13.465-13.465z"/>
        <path d="m235.62 589.43c7.4374 0 13.465-6.0298 13.465-13.465 0-7.4374-6.0279-13.466-13.465-13.466h-8.9232v26.931z"/>
        <path d="m302.96 667.56c7.4374 0 13.465-6.0298 13.465-13.465 0-7.4364-6.0279-13.465-13.465-13.465h-76.251v26.931z"/>
        <path d="m302.96 477.54c7.4374 0 13.465-6.0307 13.465-13.466 0-7.4364-6.0279-13.466-13.465-13.466h-76.251v26.932z"/>
        <path d="m269.29 629.02c7.4374 0 13.466-6.0307 13.466-13.464 0-7.4374-6.0288-13.466-13.466-13.466h-42.586v26.931z"/>
        <path d="m269.29 437.95c7.4374 0 13.466-6.0298 13.466-13.466s-6.0288-13.465-13.466-13.465h-42.586v26.931z"/>
        <path d="m287.24 552.49c7.4364 0 13.465-6.0298 13.465-13.466 0-7.4374-6.0288-13.466-13.465-13.466h-60.542v26.932z"/>
        <path d="m287.24 400.48c7.4364 0 13.465-6.0279 13.465-13.466 0-7.4355-6.0288-13.464-13.465-13.464h-60.542v26.931z"/>
        <path d="m253.58 363.01c7.4364 0 13.465-6.0279 13.465-13.465 0-7.4383-6.0298-13.465-13.465-13.465h-26.878v26.931z"/>
      </g>
      <g fill="#fff">
        <path d="m258.69 261.84h-19.629l-19.043-40.82q-2.1484-4.6875-4.3945-7.7148-2.2461-3.125-4.8828-4.8828-2.5391-1.8555-5.6641-2.6367-3.0273-0.78125-6.8359-0.78125h-8.2031v56.836h-17.383v-127.64h34.18q11.133 0 19.141 2.4414 8.0078 2.4414 13.086 6.8359 5.1758 4.3945 7.5195 10.645 2.4414 6.1523 2.4414 13.672 0 5.957-1.7578 11.328-1.7578 5.2734-5.2734 9.668-3.418 4.2969-8.5938 7.5195-5.0781 3.125-11.719 4.6875 5.3711 1.8555 9.082 6.543 3.8086 4.5898 7.7148 12.305zm-27.832-92.578q0-10.254-6.4453-15.332-6.3477-5.0781-17.969-5.0781h-16.406v42.188h14.062q6.1523 0 11.035-1.3672 4.9805-1.4648 8.3984-4.1992 3.5156-2.832 5.3711-6.8359 1.9531-4.1016 1.9531-9.375z"/>
        <path d="m375.2 261.84h-18.945l-8.8867-27.832h-53.125l-8.9844 27.832h-18.066l42.383-127.64h23.828zm-32.812-43.359-21.582-68.262-21.582 68.262z"/>
        <path d="m479.2 196.6q0 9.1797-1.4648 17.578-1.3672 8.3984-4.4922 15.625t-8.1055 13.184q-4.9805 5.8594-12.207 10.059-7.2266 4.1992-16.797 6.543-9.5703 2.2461-21.777 2.2461h-27.344v-127.64h32.91q29.883 0 44.531 15.43 14.746 15.332 14.746 46.973zm-18.262 1.2695q0-13.574-2.5391-22.949t-7.7148-15.137-12.988-8.3008q-7.8125-2.6367-18.359-2.6367h-14.941v97.949h12.988q43.555 0 43.555-48.926z"/>
        <path d="m532.72 148.85h-29.395v-14.648h76.367v14.648h-29.395v98.145h29.395v14.844h-76.367v-14.844h29.395z"/>
        <path d="m701.27 197.19q0 17.188-4.1016 29.688-4.0039 12.5-10.938 20.703-6.8359 8.1055-16.113 12.109-9.1797 3.9062-19.434 3.9062-12.305 0-21.484-4.3945-9.082-4.4922-15.137-12.891-5.957-8.3984-8.8867-20.41-2.9297-12.109-2.9297-27.246 0-16.992 4.0039-29.492t10.84-20.605q6.9336-8.2031 16.113-12.109 9.1797-4.0039 19.434-4.0039 12.305 0 21.387 4.4922 9.1797 4.4922 15.234 12.891 6.0547 8.3008 8.9844 20.312 3.0274 12.012 3.0274 27.051zm-18.066 1.2695q0-11.23-1.7578-20.508-1.6602-9.375-5.4688-16.113-3.8086-6.7383-9.8633-10.449-5.957-3.7109-14.453-3.7109-8.2031 0-14.16 4.0039-5.8594 3.9062-9.668 10.742-3.8086 6.7383-5.6641 15.918-1.8555 9.082-1.8555 19.336 0 11.328 1.7578 20.703 1.7578 9.2773 5.4688 16.016 3.8086 6.6406 9.7656 10.352 5.957 3.7109 14.355 3.7109 8.2031 0 14.16-3.9062 5.957-4.0039 9.7656-10.742 3.9062-6.8359 5.7617-15.918t1.8555-19.434z"/>
        <path d="m482.23 398.92q0 9.1797-1.4648 17.578-1.3672 8.3984-4.4922 15.625t-8.1055 13.184q-4.9805 5.8594-12.207 10.059-7.2266 4.1992-16.797 6.543-9.5703 2.2461-21.777 2.2461h-27.344v-127.64h32.91q29.883 0 44.531 15.43 14.746 15.332 14.746 46.973zm-18.262 1.2695q0-13.574-2.5391-22.949t-7.7148-15.137-12.988-8.3008q-7.8125-2.6367-18.359-2.6367h-14.941v97.949h12.988q43.555 0 43.555-48.926z"/>
        <path d="m594.14 399.5q0 17.188-4.1016 29.688-4.0039 12.5-10.938 20.703-6.8359 8.1055-16.113 12.109-9.1797 3.9062-19.434 3.9062-12.305 0-21.484-4.3945-9.082-4.4922-15.137-12.891-5.957-8.3984-8.8867-20.41-2.9297-12.109-2.9297-27.246 0-16.992 4.0039-29.492t10.84-20.605q6.9336-8.2031 16.113-12.109 9.1797-4.0039 19.434-4.0039 12.305 0 21.387 4.4922 9.1797 4.4922 15.234 12.891 6.0547 8.3008 8.9844 20.312 3.0273 12.012 3.0273 27.051zm-18.066 1.2695q0-11.23-1.7578-20.508-1.6602-9.375-5.4688-16.113-3.8086-6.7383-9.8633-10.449-5.957-3.7109-14.453-3.7109-8.2031 0-14.16 4.0039-5.8594 3.9062-9.668 10.742-3.8086 6.7383-5.6641 15.918-1.8555 9.082-1.8555 19.336 0 11.328 1.7578 20.703 1.7578 9.2773 5.4688 16.016 3.8086 6.6406 9.7656 10.352 5.957 3.7109 14.355 3.7109 8.2031 0 14.16-3.9062 5.957-4.0039 9.7656-10.742 3.9062-6.8359 5.7617-15.918 1.8555-9.082 1.8555-19.434z"/>
        <path d="m701.27 351.36h-37.793v112.79h-17.578v-112.79h-37.793v-14.844h93.164z"/>
        <path d="m477.84 666.47h-22.656l-37.207-79.59-10.742-25.586v105.18h-16.211v-127.64h22.363l35.449 75.391 12.793 29.199v-104.59h16.211z"/>
        <path d="m581.74 666.47h-72.559v-127.64h72.559v14.648h-55.176v39.551h53.027v14.648h-53.027v43.945h55.176z"/>
        <path d="m701.27 553.68h-37.793v112.79h-17.578v-112.79h-37.793v-14.844h93.164z"/>
      </g>
    </g>
    <g transform="translate(.00074283)" stroke-width=".26458">
      <rect x="271.24" y="60.845" width="47.362" height="47.362" fill="none" opacity=".537" stroke="#000"/>
      <text x="273.60751" y="88.991638" fill="#000000" font-family="'Segoe UI'" font-size="10.583px" font-style="italic" letter-spacing="0px" word-spacing="0px" style="line-height:1.25" xml:space="preserve"><tspan x="273.60751" y="88.991638" font-family="'Segoe UI'" font-size="14.111px" font-style="normal" font-weight="bold" stroke-width=".26458">.NET 5</tspan></text>
    </g>
  </g>
  <g font-family="'Sitka Heading'" font-style="italic" letter-spacing="0px" word-spacing="0px">
    <g fill="#fefefc" font-size="10.649px" stroke-width=".26623">
      <text x="277.80499" y="37.793407" style="line-height:1.25" xml:space="preserve"><tspan x="277.80499" y="37.793407" fill="#fefefc" font-family="'Segoe UI'" font-size="19.879px" font-style="normal" font-weight="bold" stroke-width=".26623">018</tspan></text>
      <text x="276.32437" y="51.578346" style="line-height:1.25" xml:space="preserve"><tspan x="276.32437" y="51.578346" fill="#fefefc" font-family="'Segoe UI'" font-size="6.3896px" font-style="normal" font-weight="bold" stroke-width=".26623">30 ноя 2020</tspan></text>
    </g>
    <g transform="translate(-3.7573 .484)" font-size="10.583px" stroke-width=".26458">
      <text x="120.15115" y="45.968597" fill="#45a3d0" style="line-height:1.25" xml:space="preserve"><tspan x="120.15115" y="45.968597" fill="#45a3d0" font-family="'Segoe UI'" font-size="5.6444px" font-style="normal" stroke-width=".26458">00:00:51</tspan></text>
      <text x="150.80423" y="45.974113" fill="#000000" style="line-height:1.25" xml:space="preserve"><tspan x="150.80423" y="45.974113" font-family="'Segoe UI'" font-size="5.6444px" font-style="normal" stroke-width=".26458">Review of C# Changes from Version 1.0 to 9.0</tspan></text>
    </g>
    <g transform="translate(-3.7573 10.526)" font-size="10.583px" stroke-width=".26458">
      <text x="120.15115" y="45.968597" fill="#45a3d0" style="line-height:1.25" xml:space="preserve"><tspan x="120.15115" y="45.968597" fill="#45a3d0" font-family="'Segoe UI'" font-size="5.6444px" font-style="normal" stroke-width=".26458">00:17:04</tspan></text>
      <text x="150.80423" y="45.974113" fill="#000000" style="line-height:1.25" xml:space="preserve"><tspan x="150.80423" y="45.974113" font-family="'Segoe UI'" font-size="5.6444px" font-style="normal" stroke-width=".26458">Microsoft .NET Conf 2020 Keynote</tspan></text>
    </g>
    <g transform="translate(-3.7573 20.511)" font-size="10.583px" stroke-width=".26458">
      <text x="120.15115" y="45.968597" fill="#45a3d0" style="line-height:1.25" xml:space="preserve"><tspan x="120.15115" y="45.968597" fill="#45a3d0" font-family="'Segoe UI'" font-size="5.6444px" font-style="normal" stroke-width=".26458">00:36:40</tspan></text>
      <text x="150.80423" y="45.974113" fill="#000000" style="line-height:1.25" xml:space="preserve"><tspan x="150.80423" y="45.974113" font-family="'Segoe UI'" font-size="5.6444px" font-style="normal" stroke-width=".26458">Announcing .NET 5</tspan></text>
    </g>
    <g transform="translate(-3.7573 30.552)" font-size="10.583px" stroke-width=".26458">
      <text x="120.15115" y="45.968597" fill="#45a3d0" style="line-height:1.25" xml:space="preserve"><tspan x="120.15115" y="45.968597" fill="#45a3d0" font-family="'Segoe UI'" font-size="5.6444px" font-style="normal" stroke-width=".26458">00:47:41</tspan></text>
      <text x="150.80423" y="45.974113" fill="#000000" style="line-height:1.25" xml:space="preserve"><tspan x="150.80423" y="45.974113" font-family="'Segoe UI'" font-size="5.6444px" font-style="normal" stroke-width=".26458">Announcing ASP.NET Core in .NET 5</tspan></text>
    </g>
    <g transform="translate(-3.7573 40.65)" font-size="10.583px" stroke-width=".26458">
      <text x="120.15115" y="45.968597" fill="#45a3d0" style="line-height:1.25" xml:space="preserve"><tspan x="120.15115" y="45.968597" fill="#45a3d0" font-family="'Segoe UI'" font-size="5.6444px" font-style="normal" stroke-width=".26458">00:49:54</tspan></text>
      <text x="150.80423" y="45.974113" fill="#000000" style="line-height:1.25" xml:space="preserve"><tspan x="150.80423" y="45.974113" font-family="'Segoe UI'" font-size="5.6444px" font-style="normal" stroke-width=".26458">Announcing the Release of EF Core 5</tspan></text>
    </g>
    <g transform="translate(-3.7573 50.635)" font-size="10.583px" stroke-width=".26458">
      <text x="120.15115" y="45.968597" fill="#45a3d0" style="line-height:1.25" xml:space="preserve"><tspan x="120.15115" y="45.968597" fill="#45a3d0" font-family="'Segoe UI'" font-size="5.6444px" font-style="normal" stroke-width=".26458">00:54:47</tspan></text>
      <text x="150.80423" y="45.974113" fill="#000000" style="line-height:1.25" xml:space="preserve"><tspan x="150.80423" y="45.974113" font-family="'Segoe UI'" font-size="5.6444px" font-style="normal" stroke-width=".26458">Announcing F# 5</tspan></text>
    </g>
    <g transform="translate(-3.7573 61.333)" font-size="10.583px" stroke-width=".26458">
      <text x="120.15115" y="45.968597" fill="#45a3d0" style="line-height:1.25" xml:space="preserve"><tspan x="120.15115" y="45.968597" fill="#45a3d0" font-family="'Segoe UI'" font-size="5.6444px" font-style="normal" stroke-width=".26458">01:08:03</tspan></text>
      <text x="150.80423" y="45.974113" fill="#000000" style="line-height:1.25" xml:space="preserve"><tspan x="150.80423" y="45.974113" font-family="'Segoe UI'" font-size="5.6444px" font-style="normal" stroke-width=".26458">C# 9.0 on the record</tspan></text>
    </g>
    <g transform="translate(-3.7573 70.775)" font-size="10.583px" stroke-width=".26458">
      <text x="120.15115" y="45.968597" fill="#45a3d0" style="line-height:1.25" xml:space="preserve"><tspan x="120.15115" y="45.968597" fill="#45a3d0" font-family="'Segoe UI'" font-size="5.6444px" font-style="normal" stroke-width=".26458">01:21:08</tspan></text>
      <text x="150.80423" y="45.974113" fill="#000000" style="line-height:1.25" xml:space="preserve"><tspan x="150.80423" y="45.974113" font-family="'Segoe UI'" font-size="5.6444px" font-style="normal" stroke-width=".26458">gRPC performance improvements in .NET 5</tspan></text>
    </g>
    <g transform="translate(-3.7573 80.786)" font-size="10.583px" stroke-width=".26458">
      <text x="120.15115" y="45.968597" fill="#45a3d0" style="line-height:1.25" xml:space="preserve"><tspan x="120.15115" y="45.968597" fill="#45a3d0" font-family="'Segoe UI'" font-size="5.6444px" font-style="normal" stroke-width=".26458">01:31:56</tspan></text>
      <text x="150.80423" y="45.974113" fill="#000000" style="line-height:1.25" xml:space="preserve"><tspan x="150.80423" y="45.974113" font-family="'Segoe UI'" font-size="5.6444px" font-style="normal" stroke-width=".26458">Additional HTTP, Sockets, DNS and TLS Telemetry in .NET 5</tspan></text>
    </g>
  </g>
  <style type="text/css">.st0{opacity:0;fill:#000105;}
	.st1{fill:#45A3D0;}
	.st2{fill:#5C7CBB;}</style>
</svg>
